<?xml version="1.0" encoding="utf-8"?>
<!-- Generator: Adobe Illustrator 23.0.2, SVG Export Plug-In . SVG Version: 6.00 Build 0)  -->
<svg version="1.1" xmlns="http://www.w3.org/2000/svg" xmlns:xlink="http://www.w3.org/1999/xlink" x="0px" y="0px"
	 viewBox="0 0 792 612" style="enable-background:new 0 0 792 612;" xml:space="preserve">
<style type="text/css">
	.st0{fill:#001484;}
	.st1{opacity:0.5;}
	.st2{fill:none;stroke:#FEFEFA;stroke-width:2;stroke-miterlimit:10;}
	.st3{fill:none;stroke:#FEFEFA;stroke-miterlimit:10;}
</style>
<g id="bacground">
	<rect class="st0" width="792" height="612"/>
</g>
<g id="lines">
	<g class="st1">
		<line class="st2" x1="100" y1="-9.95" x2="100" y2="635.02"/>
		<line class="st2" x1="200" y1="-9.95" x2="200" y2="635.02"/>
		<line class="st2" x1="300" y1="-9.95" x2="300" y2="635.02"/>
		<line class="st2" x1="400" y1="-9.95" x2="400" y2="635.02"/>
		<line class="st2" x1="500" y1="-9.95" x2="500" y2="635.02"/>
		<line class="st2" x1="600" y1="-9.95" x2="600" y2="635.02"/>
		<line class="st2" x1="700" y1="-9.95" x2="700" y2="635.02"/>
		<line class="st2" x1="-19.67" y1="100" x2="806.33" y2="100"/>
		<line class="st2" x1="-19.67" y1="200" x2="806.33" y2="200"/>
		<line class="st2" x1="-19.67" y1="300" x2="806.33" y2="300"/>
		<line class="st2" x1="-19.67" y1="400" x2="806.33" y2="400"/>
		<line class="st2" x1="-19.67" y1="500" x2="806.33" y2="500"/>
		<line class="st2" x1="-19.67" y1="600" x2="806.33" y2="600"/>
	</g>
</g>
<g id="symbols">
	<path class="st3" d="M589.67,44.36l-23.72,7.09l-5.72,24.09l18,17l23.72-7.09l5.72-24.09L589.67,44.36z M583.95,77.44
		c-4.97,0-9-4.03-9-9c0-4.97,4.03-9,9-9s9,4.03,9,9C592.95,73.41,588.92,77.44,583.95,77.44z"/>
	<path class="st3" d="M538.01,139.82c-22.18,0-40.17,17.98-40.17,40.17c0,22.18,17.98,40.17,40.17,40.17
		c22.18,0,40.17-17.98,40.17-40.17C578.17,157.81,560.19,139.82,538.01,139.82z M538.01,188.99c-4.97,0-9-4.03-9-9
		c0-4.97,4.03-9,9-9c4.97,0,9,4.03,9,9C547.01,184.96,542.98,188.99,538.01,188.99z"/>
	<g>
		<path class="st3" d="M725.06,78.25l-26.14-18.74c-2.36-1.69-5.64-1.15-7.33,1.21l-3.2,4.47c-1.69,2.36-1.15,5.64,1.21,7.33
			l5.95,4.26c-0.27,0.13-0.52,0.33-0.71,0.59l-56.05,78.2c-0.61,0.85-0.41,2.04,0.44,2.65l11.55,8.28c0.85,0.61,2.04,0.41,2.65-0.44
			l56.05-78.2c0.19-0.26,0.29-0.56,0.33-0.86l5.95,4.26c2.36,1.69,5.64,1.15,7.33-1.21l3.2-4.47
			C727.96,83.22,727.42,79.94,725.06,78.25z"/>
		<path class="st3" d="M638.67,155.73c0,0,12.86,2.66,22.2-0.08"/>
		<path class="st3" d="M644.78,147.2c0,0,12.86,2.66,22.2-0.08"/>
		<path class="st3" d="M650.9,138.67c0,0,12.86,2.66,22.2-0.08"/>
		<path class="st3" d="M657.02,130.13c0,0,12.86,2.66,22.2-0.08"/>
		<path class="st3" d="M663.13,121.6c0,0,12.86,2.66,22.2-0.08"/>
		<path class="st3" d="M669.25,113.07c0,0,12.86,2.66,22.2-0.08"/>
		<path class="st3" d="M675.36,104.54c0,0,12.86,2.66,22.2-0.08"/>
		<path class="st3" d="M681.48,96c0,0,12.86,2.66,22.2-0.08"/>
		<path class="st3" d="M687.6,87.47c0,0,12.86,2.66,22.2-0.08"/>
	</g>
	<g>
		<path class="st2" d="M145.97,181.68c0,0-69.33,10.82-81.33,73.91"/>
		<path class="st2" d="M61.71,295.12c0,0-12.22,69.1,43.59,100.89"/>
		<path class="st2" d="M130.81,414.18c0,0,57.46,40.28,109.86,3.15"/>
		<polygon class="st2" points="237.61,130.05 193.69,206.13 149.77,130.05 		"/>
	</g>
</g>
</svg>
