<?xml version="1.0" encoding="utf-8"?>
<!-- Generator: Adobe Illustrator 23.0.2, SVG Export Plug-In . SVG Version: 6.00 Build 0)  -->
<svg version="1.1" id="Layer_1" xmlns="http://www.w3.org/2000/svg" xmlns:xlink="http://www.w3.org/1999/xlink" x="0px" y="0px"
	 viewBox="0 0 200 161.84" style="enable-background:new 0 0 200 161.84;" xml:space="preserve">
<style type="text/css">
	.st0{fill:none;stroke:#001484;stroke-width:2;stroke-miterlimit:10;}
	.st1{fill:#FFFFFF;stroke:#001484;stroke-width:2;stroke-miterlimit:10;}
</style>
<g>
	<rect x="9.49" y="47.42" class="st0" width="181.03" height="113.14"/>
	<path class="st1" d="M125.93,16.05H74.07c-2.47,0-4.46-2-4.46-4.46v-5.8c0-2.47,2-4.46,4.46-4.46h51.86c2.47,0,4.46,2,4.46,4.46
		v5.8C130.39,14.05,128.4,16.05,125.93,16.05z"/>
	<rect x="1" y="13.77" class="st1" width="198" height="56.57"/>
	<path class="st1" d="M108.39,78.82H91.61c-1.61,0-2.92-1.31-2.92-2.92V64.78c0-1.61,1.31-2.92,2.92-2.92h16.78
		c1.61,0,2.92,1.31,2.92,2.92V75.9C111.31,77.52,110.01,78.82,108.39,78.82z"/>
</g>
</svg>
