<?xml version="1.0" encoding="utf-8"?>
<!-- Generator: Adobe Illustrator 23.0.2, SVG Export Plug-In . SVG Version: 6.00 Build 0)  -->
<svg version="1.1" id="Layer_1" xmlns="http://www.w3.org/2000/svg" xmlns:xlink="http://www.w3.org/1999/xlink" x="0px" y="0px"
	 viewBox="0 0 200 200" style="enable-background:new 0 0 200 200;" xml:space="preserve">
<style type="text/css">
	.st0{fill:none;stroke:#001484;stroke-width:3;stroke-miterlimit:10;}
	.st1{fill:#001484;}
</style>
<path class="st0" d="M192.11,198.5H7.89c-3.53,0-6.39-2.86-6.39-6.39V7.89c0-3.53,2.86-6.39,6.39-6.39h184.23
	c3.53,0,6.39,2.86,6.39,6.39v184.23C198.5,195.64,195.64,198.5,192.11,198.5z"/>
<g>
	<g>
		<path class="st1" d="M60.77,98.31c0,1.16,0.06,2.31,0.16,3.45h78.14c0.1-1.14,0.16-2.28,0.16-3.45c0-13.98-7.32-26.24-18.33-33.19
			H79.1C68.09,72.06,60.77,84.33,60.77,98.31z"/>
		<circle class="st1" cx="100" cy="42.24" r="18.13"/>
	</g>
	<g>
		<path class="st1" d="M173,135.89H28c-1.66,0-3-1.34-3-3v-4c0-1.66,1.34-3,3-3h144c1.66,0,3,1.34,3,3v5
			C175,134.99,174.1,135.89,173,135.89z"/>
		<path class="st1" d="M173,155.89H28c-1.66,0-3-1.34-3-3v-4c0-1.66,1.34-3,3-3h144c1.66,0,3,1.34,3,3v5
			C175,154.99,174.1,155.89,173,155.89z"/>
		<path class="st1" d="M173,175.89H28c-1.66,0-3-1.34-3-3v-4c0-1.66,1.34-3,3-3h144c1.66,0,3,1.34,3,3v5
			C175,174.99,174.1,175.89,173,175.89z"/>
	</g>
</g>
</svg>
